<svg width="47" height="34" viewBox="0 0 47 34" fill="none" xmlns="http://www.w3.org/2000/svg">
<path d="M45.3357 16.2604L28.6641 33.2598L29.3892 33.9992L46.0609 16.9998L45.3357 16.2604Z" fill="#BDD630"/>
<path d="M25.7625 30.3042L26.4881 31.0429L43.1594 14.044L29.386 0L28.6616 0.738718L41.7093 14.044L40.9848 14.7828L27.9359 1.47864L27.2114 2.21735L40.2591 15.5215L39.5347 16.2614L26.4869 2.95607L25.7613 3.69599L36.044 14.1795H0.0927734V15.3284H37.1707L38.8102 17.0001L37.0707 18.7737H0.0927734V19.9226H35.944L25.7625 30.3042Z" fill="#BDD630"/>
<path d="M43.8875 14.7838L27.2158 31.7832L27.941 32.5226L44.6127 15.5233L43.8875 14.7838Z" fill="#BDD630"/>
<path d="M37.7046 17.0517L37.1165 16.4785H0.0927734V17.6262H37.1165L37.7046 17.0517Z" fill="#BDD630"/>
</svg>
