<svg width="46" height="34" viewBox="0 0 46 34" fill="none" xmlns="http://www.w3.org/2000/svg">
<path d="M45.2731 16.2604L28.5898 33.2598L29.3155 33.9992L45.9988 16.9998L45.2731 16.2604Z" fill="white"/>
<path d="M25.6875 30.3042L26.4136 31.0429L43.0965 14.044L29.3136 0L28.5886 0.738718L41.6453 14.044L40.9204 14.7828L27.8624 1.47863L27.1374 2.21735L40.1942 15.5215L39.4692 16.2614L26.4125 2.95607L25.6863 3.69599L35.9761 14.1795H0V15.3284H37.1036L38.7442 17.0001L37.0036 18.7737H0V19.9226H35.8761L25.6875 30.3042Z" fill="white"/>
<path d="M43.8239 14.7839L27.1406 31.7832L27.8663 32.5226L44.5496 15.5233L43.8239 14.7839Z" fill="white"/>
<path d="M37.6379 17.0517L37.0495 16.4785H0V17.6262H37.0495L37.6379 17.0517Z" fill="white"/>
</svg>
