<svg width="283" height="32" viewBox="0 0 283 32" fill="none" xmlns="http://www.w3.org/2000/svg">
<path d="M11.6554 0H13.3673C16.2197 0.155985 18.955 1.41568 20.9877 3.43166C20.1634 4.19977 19.4421 5.08132 18.5639 5.79034C17.6108 5.1475 16.7256 4.36994 15.6202 3.99652C12.2643 2.67774 8.16608 3.72709 5.86638 6.53009C2.98355 9.80813 3.03976 15.2014 5.96239 18.4369C8.98104 22.034 15.0043 22.4618 18.4093 19.1979C19.7044 18.0706 20.2758 16.3713 20.524 14.7122C17.8356 14.7098 15.1471 14.7193 12.4564 14.7075C12.454 13.5683 12.454 12.4268 12.4587 11.2876C16.1518 11.3042 19.8496 11.2451 23.5427 11.3089C23.983 11.2522 23.894 11.7532 23.9549 12.0345C24.182 14.7689 23.7628 17.6617 22.2359 19.9873C20.6411 22.3484 18.1119 24.0713 15.3181 24.5936C12.0793 25.2672 8.57356 24.7023 5.78207 22.8825C2.78215 20.9847 0.632331 17.7468 0.133516 14.197C-0.339538 11.0915 0.459034 7.81578 2.29739 5.27985C4.43784 2.23106 7.96936 0.264701 11.6554 0Z" fill="white"/>
<path d="M77.3862 0.829048C78.5572 0.821958 79.7281 0.821958 80.899 0.829048C80.899 8.6661 80.9014 16.5032 80.899 24.3402C79.7281 24.3402 78.5572 24.3402 77.3862 24.3402C77.3862 16.5032 77.3862 8.6661 77.3862 0.829048Z" fill="white"/>
<path d="M166.716 6.13327C167.313 3.12938 170.833 1.4041 173.613 2.4629C175.116 3.00649 176.158 4.39144 176.699 5.86148C175.894 6.31053 175.088 6.75485 174.252 7.13536C173.931 6.49487 173.646 5.78349 173.062 5.3368C171.964 4.43635 170.074 4.97993 169.606 6.32471C169.273 7.28661 169.566 8.35724 170.182 9.1348C172.531 12.2356 174.877 15.3364 177.231 18.4324C177.87 17.3594 178.475 16.2605 179.158 15.2135C179.882 15.6814 180.617 16.1328 181.35 16.5843C180.54 17.9361 179.704 19.2714 178.868 20.6044C179.528 21.5072 180.238 22.3722 180.868 23.2987C180.154 23.8092 179.453 24.3409 178.763 24.8822C178.268 24.2464 177.779 23.6059 177.306 22.9536C174.257 25.7944 169.02 25.3927 166.339 22.2422C164.039 19.7654 163.819 15.6578 165.833 12.9399C166.428 12.0772 167.238 11.3918 168.088 10.7939C167.206 9.42313 166.262 7.83965 166.716 6.13327ZM167.259 18.7255C168.262 22.1903 173.243 23.5138 175.716 20.8431C173.692 18.1866 171.7 15.5042 169.667 12.8548C167.709 14.0081 166.475 16.4826 167.259 18.7255Z" fill="white"/>
<path d="M191.722 5.72472C193.774 3.43458 196.807 2.11816 199.867 2.17489C202.881 2.05908 205.977 3.30459 207.891 5.694C207.357 6.43611 206.614 6.99151 205.989 7.6509C203.219 4.07979 197.415 4.01834 194.289 7.12858C192.528 8.71207 191.659 11.1298 191.72 13.4814C191.661 15.7243 192.416 18.0262 194.003 19.6334C196.233 21.9991 199.87 22.7483 202.884 21.6352C204.354 21.1223 205.579 20.0966 206.631 18.9645C207.272 19.6192 207.921 20.2715 208.581 20.9096C204.773 25.7617 196.785 26.2084 192.378 21.9495C187.868 17.927 187.61 10.1183 191.722 5.72472Z" fill="white"/>
<path d="M111.115 2.65601C112.174 2.66073 113.232 2.65364 114.293 2.67255C116.972 9.90221 119.691 17.1153 122.377 24.3426C121.356 24.3284 120.333 24.3922 119.314 24.319C118.452 22.4495 117.93 20.4146 117.169 18.4932C114.181 18.5145 111.195 18.4672 108.207 18.5168C107.542 20.4666 106.813 22.3904 106.146 24.3379C105.099 24.3473 104.055 24.345 103.01 24.345C105.694 17.1082 108.392 9.87857 111.115 2.65601ZM112.654 6.0924C111.537 9.3539 110.319 12.5799 109.186 15.8367C111.525 15.832 113.865 15.8485 116.204 15.8249C114.998 12.5894 113.93 9.29954 112.654 6.0924Z" fill="white"/>
<path d="M227.043 2.65015C227.97 2.66196 228.9 2.66196 229.832 2.65015C229.855 9.88217 229.834 17.1118 229.841 24.3438C228.902 24.3438 227.965 24.3438 227.031 24.3438C227.038 17.1118 227.014 9.8798 227.043 2.65015Z" fill="white"/>
<path d="M136.924 4.97178C137.863 4.96233 138.8 4.96233 139.739 4.96469C139.742 6.47254 139.749 7.9804 139.732 9.48589C140.917 9.52843 142.102 9.52134 143.289 9.50007C143.318 10.3698 143.318 11.2419 143.308 12.1116C142.121 12.1164 140.934 12.1164 139.746 12.1116C139.739 14.6168 139.742 17.1221 139.742 19.6273C139.737 20.4001 139.901 21.3242 140.62 21.7496C141.341 22.1797 142.203 21.9812 142.971 21.8087C143.32 22.6217 143.652 23.4442 143.938 24.2855C142.292 24.7393 140.416 24.8338 138.884 23.9641C137.61 23.2504 136.971 21.7614 136.941 20.3386C136.901 17.5947 136.964 14.8508 136.913 12.1093C136.058 12.1187 135.203 12.1164 134.351 12.0998C134.355 11.2395 134.355 10.3793 134.353 9.51661C135.21 9.51425 136.067 9.51189 136.927 9.51189C136.931 7.99694 136.934 6.48436 136.924 4.97178Z" fill="white"/>
<path d="M234.934 4.96461C235.873 4.96225 236.812 4.96225 237.754 4.97407C237.74 6.48665 237.742 7.99923 237.749 9.51181C238.934 9.51417 240.119 9.5189 241.304 9.50472C241.316 10.3744 241.316 11.2442 241.316 12.1116C240.131 12.1163 238.946 12.1186 237.763 12.1092C237.723 14.534 237.756 16.9613 237.74 19.3861C237.74 20.2133 237.815 21.2059 238.569 21.7093C239.297 22.2009 240.213 21.9788 241.009 21.8039C241.318 22.6193 241.641 23.4275 241.976 24.2311C240.463 24.7605 238.747 24.7841 237.262 24.1602C235.791 23.5103 234.971 21.8866 234.943 20.3149C234.911 17.5828 234.946 14.846 234.932 12.1139C234.072 12.1163 233.215 12.1163 232.358 12.1116C232.351 11.2442 232.353 10.3744 232.377 9.50708C233.229 9.5189 234.084 9.51653 234.939 9.49526C234.927 7.98505 234.932 6.47483 234.934 4.96461Z" fill="white"/>
<path d="M31.8501 8.91683C34.2692 8.53396 36.871 9.26425 38.6579 10.9754C41.721 13.7831 41.9248 19.0653 39.1754 22.159C37.0514 24.6547 33.3583 25.5103 30.3256 24.3806C28.2671 23.6479 26.5411 22.0077 25.7402 19.9539C24.478 16.8461 25.2554 12.9346 27.8455 10.7508C28.9743 9.77475 30.3818 9.13663 31.8501 8.91683ZM32.0515 12.176C30.4637 12.5754 29.2038 13.9627 28.8455 15.5604C28.349 17.4818 29.0375 19.7294 30.6862 20.8733C32.1077 21.8967 34.1592 21.8943 35.5783 20.8662C37.8851 19.2685 38.2293 15.5982 36.3675 13.5255C35.3324 12.2965 33.5948 11.7647 32.0515 12.176Z" fill="white"/>
<path d="M49.1705 8.9189C51.592 8.5313 54.1938 9.26159 55.983 10.9727C58.9618 13.7048 59.2452 18.7767 56.7183 21.9011C54.8753 24.2621 51.6576 25.3233 48.7677 24.697C46.4353 24.229 44.3346 22.6479 43.2995 20.4783C41.8124 17.4437 42.3558 13.4448 44.817 11.0838C45.9903 9.91862 47.5453 9.16233 49.1705 8.9189ZM49.3719 12.1757C47.7373 12.5916 46.461 14.0499 46.1378 15.7042C45.7093 17.5879 46.4048 19.7504 48.0043 20.8659C49.4703 21.9318 51.6108 21.8893 53.037 20.7714C55.2313 19.1241 55.517 15.5577 53.695 13.5252C52.6552 12.2938 50.9176 11.7621 49.3719 12.1757Z" fill="white"/>
<path d="M66.1051 8.94962C68.1097 8.51003 70.2877 9.13397 71.7232 10.6206C71.7115 10.1951 71.7045 9.76973 71.6998 9.34431C72.8145 9.3325 73.9293 9.33486 75.044 9.34195C75.044 14.1846 75.0416 19.0295 75.0463 23.8722C75.0393 26.0134 74.5147 28.287 73.0206 29.8823C71.9574 31.0427 70.4516 31.6454 68.9575 31.9999C67.9435 31.8723 66.9248 31.9337 65.9107 31.8699C63.4495 31.4209 61.3722 29.5609 60.4261 27.2518C61.4542 26.8359 62.4682 26.3939 63.4986 25.9827C64.0115 26.9493 64.6813 27.8923 65.6906 28.3815C67.3885 29.2536 69.7584 28.8471 70.8778 27.2235C71.7209 26.03 71.7209 24.4914 71.7185 23.0852C70.3087 24.4559 68.2924 25.1531 66.351 24.7774C62.6907 24.2338 59.8196 20.7336 59.8196 17.0254C59.6791 13.2888 62.4401 9.64447 66.1051 8.94962ZM66.7117 12.1639C65.7632 12.412 64.9178 13.0076 64.3394 13.8041C62.8523 15.794 63.0701 18.9303 64.9623 20.5823C66.3487 21.8656 68.6484 22.024 70.1378 20.8281C72.4796 18.9917 72.5265 15.0118 70.3415 13.0336C69.3744 12.1497 67.9692 11.8377 66.7117 12.1639Z" fill="white"/>
<path d="M85.1345 10.6564C87.3171 8.68297 90.7503 8.20793 93.3333 9.64488C95.3145 10.7202 96.5136 12.7693 97.2255 14.8562C93.6987 16.364 90.132 17.775 86.6216 19.3207C87.3757 20.6253 88.6848 21.6959 90.2561 21.6344C91.9165 21.7739 93.4223 20.7718 94.3286 19.4294C95.2279 20.0391 96.1763 20.5851 97.0288 21.2681C95.3473 24.1207 91.6753 25.4348 88.5278 24.643C86.2211 24.1255 84.2048 22.4687 83.2563 20.2826C81.8489 17.1109 82.5069 12.9891 85.1345 10.6564ZM88.3382 12.4691C86.8487 13.242 86.0267 14.8987 86.0104 16.5507C88.378 15.5463 90.7784 14.6151 93.1109 13.535C92.1039 11.9681 89.9072 11.5285 88.3382 12.4691Z" fill="white"/>
<path d="M145.939 11.0565C148.267 8.50637 152.651 8.30311 155.29 10.4774C155.937 11.0068 156.349 11.7537 156.705 12.5005C155.892 12.8432 155.08 13.1788 154.26 13.4979C153.309 11.3732 150.307 10.9596 148.56 12.2713C147.731 12.8739 147.867 14.2376 148.782 14.6819C150.712 15.5871 152.986 15.4997 154.855 16.5821C156.208 17.3739 157.063 18.9644 156.89 20.5479C156.799 22.2779 155.487 23.7125 153.946 24.3341C152.201 25.036 150.199 25.0384 148.431 24.4263C146.675 23.7834 145.352 22.2779 144.604 20.5834C145.443 20.2218 146.286 19.8673 147.138 19.5387C147.602 20.4605 148.183 21.4011 149.145 21.8596C150.45 22.5072 152.185 22.5403 153.368 21.6091C154.199 20.9922 154.26 19.6026 153.412 18.9692C152.452 18.2436 151.192 18.1703 150.073 17.8513C148.574 17.5535 147.07 16.9744 145.986 15.8495C144.797 14.5614 144.855 12.3918 145.939 11.0565Z" fill="white"/>
<path d="M273.9 9.27597C275.431 8.85292 277.092 8.92855 278.598 9.42723C280.562 10.1008 282.078 11.8048 282.705 13.7806C283.136 14.9694 282.956 16.2527 282.993 17.4912C279.157 17.4935 275.324 17.4888 271.49 17.4912C271.642 18.8738 272.129 20.3013 273.256 21.1828C274.722 22.4661 277 22.6103 278.654 21.6106C279.368 21.1828 279.79 20.4312 280.197 19.7269C281.042 20.0531 281.878 20.4052 282.71 20.7716C281.85 22.7261 280.071 24.2741 277.977 24.6925C275.68 25.1533 273.089 24.7445 271.305 23.1279C268.834 21.0079 268.176 17.3352 269.078 14.2911C269.792 12.001 271.551 9.92354 273.9 9.27597ZM273.63 12.2869C272.628 12.9251 272.052 14.0193 271.684 15.1207C274.525 15.1183 277.368 15.1632 280.209 15.097C279.916 13.7475 279.078 12.4406 277.764 11.9253C276.429 11.4503 274.827 11.4503 273.63 12.2869Z" fill="white"/>
<path d="M126.607 11.8365C127.63 9.69761 130.15 8.85387 132.366 9.17529C132.356 10.1018 132.356 11.0258 132.363 11.9499C130.801 11.8247 129.05 11.9665 127.893 13.1647C126.907 14.0841 126.649 15.495 126.731 16.7926C126.752 19.3072 126.726 21.8195 126.747 24.3318C125.806 24.346 124.867 24.346 123.93 24.3436C123.933 19.3994 123.909 14.4528 123.942 9.50854C124.83 9.51326 125.717 9.51326 126.605 9.50617C126.623 10.2837 126.626 11.0589 126.607 11.8365Z" fill="white"/>
<path d="M262.246 11.8282C263.004 10.4551 264.363 9.44352 265.908 9.18827C266.859 9.01101 267.822 9.21427 268.744 9.45297C268.384 10.2943 268.114 11.1759 267.693 11.9865C267.276 12.1473 266.796 11.9298 266.36 11.9511C264.262 11.7998 262.442 13.7591 262.407 15.8176C262.363 18.6584 262.405 21.5016 262.391 24.3424C261.452 24.3424 260.515 24.3424 259.581 24.3424C259.588 19.3958 259.567 14.4492 259.592 9.5026C260.48 9.51442 261.367 9.51442 262.26 9.5026C262.276 10.2778 262.276 11.053 262.246 11.8282Z" fill="white"/>
<path d="M210.701 9.51067C211.633 9.51067 212.565 9.51067 213.499 9.50595C213.527 12.4035 213.506 15.301 213.508 18.1962C213.511 19.2621 213.686 20.4154 214.429 21.2261C215.277 22.1998 216.707 22.4054 217.911 22.1643C219.218 21.8831 220.141 20.7369 220.609 19.5315C221.014 18.5058 220.944 17.3808 220.949 16.2984C220.946 14.0319 220.934 11.7677 220.958 9.50122C221.885 9.51304 222.815 9.51304 223.745 9.50122C223.773 14.4478 223.749 19.3944 223.756 24.3387C222.859 24.341 221.963 24.341 221.068 24.341C221.063 23.6958 221.063 23.0483 221.061 22.4031C220.101 23.4879 218.918 24.4687 217.464 24.7405C215.722 25.0642 213.729 24.757 212.408 23.4902C211.209 22.3038 210.698 20.5667 210.698 18.9028C210.701 15.7737 210.701 12.6422 210.701 9.51067Z" fill="white"/>
<path d="M243.48 9.51376C244.41 9.51612 245.342 9.51612 246.274 9.50903C246.314 12.3286 246.27 15.1481 246.295 17.9677C246.328 19.095 246.438 20.3311 247.213 21.215C248.148 22.262 249.747 22.4794 251.035 22.0753C252.677 21.4726 253.686 19.6764 253.719 17.9629C253.738 15.1458 253.707 12.3262 253.733 9.50903C254.679 9.51849 255.628 9.51849 256.576 9.50903C256.614 14.4556 256.585 19.3999 256.593 24.3465C255.675 24.3465 254.759 24.3465 253.843 24.3465C253.841 23.7036 253.841 23.0632 253.846 22.4203C252.867 23.6067 251.539 24.5757 249.993 24.7932C248.22 25.0508 246.206 24.649 244.986 23.2381C243.827 21.9429 243.488 20.1396 243.478 18.4451C243.473 15.4672 243.476 12.4917 243.48 9.51376Z" fill="white"/>
</svg>
