<svg width="174" height="58" viewBox="0 0 174 58" fill="none" xmlns="http://www.w3.org/2000/svg">
<path d="M69.2578 4.48438H71.625V9.22656L76.0703 4.48438H79.1797L74.4609 9.22656L79.4219 16H76.3281L72.7734 10.9688L71.625 12.1484V16H69.2578V4.48438ZM85.875 14.2812C86.8281 14.2812 87.5833 13.9297 88.1406 13.2266C88.7031 12.5234 88.9844 11.5234 88.9844 10.2266C88.9844 8.9349 88.7031 7.9375 88.1406 7.23438C87.5833 6.52604 86.8281 6.17188 85.875 6.17188C84.9219 6.17188 84.1615 6.52344 83.5938 7.22656C83.026 7.92969 82.7422 8.92969 82.7422 10.2266C82.7422 11.5234 83.026 12.5234 83.5938 13.2266C84.1615 13.9297 84.9219 14.2812 85.875 14.2812ZM91.3906 10.2266C91.3906 12.2943 90.8099 13.8776 89.6484 14.9766C88.7786 15.8724 87.5208 16.3203 85.875 16.3203C84.2292 16.3203 82.9714 15.8724 82.1016 14.9766C80.9349 13.8776 80.3516 12.2943 80.3516 10.2266C80.3516 8.11719 80.9349 6.53385 82.1016 5.47656C82.9714 4.58073 84.2292 4.13281 85.875 4.13281C87.5208 4.13281 88.7786 4.58073 89.6484 5.47656C90.8099 6.53385 91.3906 8.11719 91.3906 10.2266ZM92.7344 10.3359C92.7344 8.32552 93.2734 6.77604 94.3516 5.6875C95.2891 4.73958 96.4818 4.26562 97.9297 4.26562C99.8672 4.26562 101.284 4.90104 102.18 6.17188C102.674 6.88542 102.94 7.60156 102.977 8.32031H100.57C100.414 7.76823 100.214 7.35156 99.9688 7.07031C99.5312 6.57031 98.8828 6.32031 98.0234 6.32031C97.1484 6.32031 96.4583 6.67448 95.9531 7.38281C95.4479 8.08594 95.1953 9.08333 95.1953 10.375C95.1953 11.6667 95.4609 12.6354 95.9922 13.2812C96.5286 13.9219 97.2083 14.2422 98.0312 14.2422C98.875 14.2422 99.5182 13.9661 99.9609 13.4141C100.206 13.1172 100.409 12.6719 100.57 12.0781H102.953C102.745 13.3333 102.211 14.3542 101.352 15.1406C100.497 15.9271 99.401 16.3203 98.0625 16.3203C96.4062 16.3203 95.1042 15.7891 94.1562 14.7266C93.2083 13.6589 92.7344 12.1953 92.7344 10.3359ZM104.781 16V4.48438H107.164V8.875H111.664V4.48438H114.055V16H111.664V10.8594H107.164V16H104.781ZM118.562 16H116.172V4.48438H118.562V16ZM71.5547 24.4844V27.0234H74.3828C74.888 27.0234 75.2969 26.9297 75.6094 26.7422C75.9271 26.5495 76.0859 26.2109 76.0859 25.7266C76.0859 25.1901 75.8776 24.8359 75.4609 24.6641C75.1016 24.5443 74.6432 24.4844 74.0859 24.4844H71.5547ZM71.5547 28.9297V32H74.3828C74.888 32 75.2812 31.9323 75.5625 31.7969C76.0729 31.5469 76.3281 31.0677 76.3281 30.3594C76.3281 29.7604 76.0807 29.349 75.5859 29.125C75.3099 29 74.9219 28.9349 74.4219 28.9297H71.5547ZM74.8516 22.4844C76.263 22.5052 77.263 22.9141 77.8516 23.7109C78.2057 24.2005 78.3828 24.7865 78.3828 25.4688C78.3828 26.1719 78.2057 26.737 77.8516 27.1641C77.6536 27.4036 77.362 27.6224 76.9766 27.8203C77.5651 28.0339 78.0078 28.3724 78.3047 28.8359C78.6068 29.2995 78.7578 29.862 78.7578 30.5234C78.7578 31.2057 78.5859 31.8177 78.2422 32.3594C78.0234 32.7188 77.75 33.0208 77.4219 33.2656C77.0521 33.5469 76.6146 33.7396 76.1094 33.8438C75.6094 33.9479 75.0651 34 74.4766 34H69.2578V22.4844H74.8516ZM82.9844 34H80.5938V22.4844H82.9844V34ZM93.75 24.5234H87.6562V26.9688H93.25V28.9688H87.6562V31.9297H94.0312V34H85.3047V22.4844H93.75V24.5234ZM95.8672 22.4844H98.3906L102.977 30.5234V22.4844H105.219V34H102.812L98.1094 25.8203V34H95.8672V22.4844ZM107.43 22.4844H109.953L114.539 30.5234V22.4844H116.781V34H114.375L109.672 25.8203V34H107.43V22.4844ZM122.18 29.6484H125.102L123.664 25.1172L122.18 29.6484ZM122.328 22.4844H125.047L129.125 34H126.516L125.773 31.6328H121.531L120.734 34H118.219L122.328 22.4844ZM130.594 22.4844H133V31.9297H138.703V34H130.594V22.4844ZM148.891 24.5234H142.797V26.9688H148.391V28.9688H142.797V31.9297H149.172V34H140.445V22.4844H148.891V24.5234ZM69.2188 40.5H77.3828V42.5234H71.6094V45.1719H76.6641V47.1719H71.6094V52H69.2188V40.5ZM84.0938 50.2812C85.0469 50.2812 85.8021 49.9297 86.3594 49.2266C86.9219 48.5234 87.2031 47.5234 87.2031 46.2266C87.2031 44.9349 86.9219 43.9375 86.3594 43.2344C85.8021 42.526 85.0469 42.1719 84.0938 42.1719C83.1406 42.1719 82.3802 42.5234 81.8125 43.2266C81.2448 43.9297 80.9609 44.9297 80.9609 46.2266C80.9609 47.5234 81.2448 48.5234 81.8125 49.2266C82.3802 49.9297 83.1406 50.2812 84.0938 50.2812ZM89.6094 46.2266C89.6094 48.2943 89.0286 49.8776 87.8672 50.9766C86.9974 51.8724 85.7396 52.3203 84.0938 52.3203C82.4479 52.3203 81.1901 51.8724 80.3203 50.9766C79.1536 49.8776 78.5703 48.2943 78.5703 46.2266C78.5703 44.1172 79.1536 42.5339 80.3203 41.4766C81.1901 40.5807 82.4479 40.1328 84.0938 40.1328C85.7396 40.1328 86.9974 40.5807 87.8672 41.4766C89.0286 42.5339 89.6094 44.1172 89.6094 46.2266ZM91.4531 40.4844H93.8984V47.5625C93.8984 48.3542 93.9922 48.9323 94.1797 49.2969C94.4714 49.9427 95.1068 50.2656 96.0859 50.2656C97.0599 50.2656 97.6927 49.9427 97.9844 49.2969C98.1719 48.9323 98.2656 48.3542 98.2656 47.5625V40.4844H100.711V47.5625C100.711 48.7865 100.521 49.7396 100.141 50.4219C99.4323 51.6719 98.0807 52.2969 96.0859 52.2969C94.0911 52.2969 92.737 51.6719 92.0234 50.4219C91.6432 49.7396 91.4531 48.7865 91.4531 47.5625V40.4844ZM102.977 40.4844H105.5L110.086 48.5234V40.4844H112.328V52H109.922L105.219 43.8203V52H102.977V40.4844ZM116.914 42.4844V50H119.133C120.268 50 121.06 49.4401 121.508 48.3203C121.753 47.7057 121.875 46.974 121.875 46.125C121.875 44.9531 121.69 44.0547 121.32 43.4297C120.956 42.7995 120.227 42.4844 119.133 42.4844H116.914ZM119.539 40.4844C120.253 40.4948 120.846 40.5781 121.32 40.7344C122.128 41 122.781 41.487 123.281 42.1953C123.682 42.7682 123.956 43.388 124.102 44.0547C124.247 44.7214 124.32 45.3568 124.32 45.9609C124.32 47.4922 124.013 48.7891 123.398 49.8516C122.565 51.2839 121.279 52 119.539 52H114.578V40.4844H119.539ZM129.289 47.6484H132.211L130.773 43.1172L129.289 47.6484ZM129.438 40.4844H132.156L136.234 52H133.625L132.883 49.6328H128.641L127.844 52H125.328L129.438 40.4844ZM144.883 40.4844V42.5234H141.438V52H139.016V42.5234H135.555V40.4844H144.883ZM148.5 52H146.109V40.4844H148.5V52ZM155.844 50.2812C156.797 50.2812 157.552 49.9297 158.109 49.2266C158.672 48.5234 158.953 47.5234 158.953 46.2266C158.953 44.9349 158.672 43.9375 158.109 43.2344C157.552 42.526 156.797 42.1719 155.844 42.1719C154.891 42.1719 154.13 42.5234 153.562 43.2266C152.995 43.9297 152.711 44.9297 152.711 46.2266C152.711 47.5234 152.995 48.5234 153.562 49.2266C154.13 49.9297 154.891 50.2812 155.844 50.2812ZM161.359 46.2266C161.359 48.2943 160.779 49.8776 159.617 50.9766C158.747 51.8724 157.49 52.3203 155.844 52.3203C154.198 52.3203 152.94 51.8724 152.07 50.9766C150.904 49.8776 150.32 48.2943 150.32 46.2266C150.32 44.1172 150.904 42.5339 152.07 41.4766C152.94 40.5807 154.198 40.1328 155.844 40.1328C157.49 40.1328 158.747 40.5807 159.617 41.4766C160.779 42.5339 161.359 44.1172 161.359 46.2266ZM163.164 40.4844H165.688L170.273 48.5234V40.4844H172.516V52H170.109L165.406 43.8203V52H163.164V40.4844Z" fill="black"/>
<path d="M28.754 56.9307C28.8903 57.0675 29.1097 57.0675 29.246 56.9307L34.8078 51.3561C34.8752 51.2884 34.9144 51.1956 34.9144 51.0997V41.5879L44.2693 50.5601C44.3382 50.6262 44.4275 50.6608 44.5199 50.6608C44.5795 50.6608 44.6406 50.6451 44.6954 50.6152L49.7622 47.787C49.8624 47.7304 49.9314 47.6297 49.9455 47.5149C49.9455 47.5054 49.9486 47.4755 49.9486 47.4693V39.7758C49.9486 39.6767 49.9079 39.5824 49.8374 39.5131L37.5762 27.719L57.8888 8.2707C57.9608 8.20149 58 8.10712 58 8.00802V0.495487C58 0.22179 57.7791 0 57.5065 0H49.6165C49.524 0 49.4347 0.0361784 49.3674 0.10067L29.0047 19.5662L8.64986 0.10067C8.5825 0.0361784 8.49319 0 8.40076 0H0.593787C0.266343 0 0 0.267406 0 0.596158V8.06779C0 8.16689 0.0407347 8.26284 0.112804 8.33048L20.4488 27.7693L8.18612 39.5131C8.11405 39.5824 8.07488 39.6767 8.07488 39.7758L8.06861 47.356C8.06861 47.5558 8.17515 47.7382 8.34905 47.8358L13.303 50.5995C13.4409 50.6765 13.6132 50.6545 13.7276 50.5444L23.095 41.5785V51.0997C23.095 51.1956 23.1326 51.2884 23.2016 51.3561L28.7556 56.9307H28.754ZM0.723825 7.91207V1.22063L24.4549 23.9344L20.9721 27.2691L0.723825 7.91207ZM8.79714 39.9316L25.2305 24.1971C25.3981 24.0288 25.4059 23.8479 25.2305 23.6717L1.26591 0.726715H8.25505L28.7556 20.3307C28.895 20.4644 29.1144 20.4644 29.2538 20.3307L49.7606 0.726715H56.7357L8.79087 46.6167L8.79714 39.9316ZM28.6428 55.7934L23.8173 50.9487V40.8863L28.6428 36.2681V55.7934ZM34.1905 50.9487L29.365 55.7934V36.2665L34.1905 40.8942V50.9487V50.9487ZM49.2232 39.93V46.6198L33.5216 31.5964L37.0482 28.2192L49.2217 39.9284L49.2232 39.93ZM57.2777 7.85229L32.7476 31.3352C32.6755 31.4045 32.6348 31.4988 32.6364 31.5979C32.6364 31.697 32.6771 31.793 32.7492 31.8606L48.9804 47.3906L44.5763 49.8492L29.2569 35.156C29.1864 35.0884 29.0971 35.0553 29.0078 35.0553C28.9185 35.0553 28.8277 35.0884 28.7587 35.156L13.4221 49.8334L9.03684 47.3875L57.2777 1.21119V7.85229V7.85229Z" fill="#231F20"/>
</svg>
