<svg width="177" height="67" viewBox="0 0 177 67" fill="none" xmlns="http://www.w3.org/2000/svg">
<path d="M167.164 46.4844H169.688L174.273 54.5234V46.4844H176.516V58H174.109L169.406 49.8203V58H167.164V46.4844Z" fill="black"/>
<path d="M159.844 56.2812C160.797 56.2812 161.552 55.9297 162.109 55.2266C162.672 54.5234 162.953 53.5234 162.953 52.2266C162.953 50.9349 162.672 49.9375 162.109 49.2344C161.552 48.526 160.797 48.1719 159.844 48.1719C158.891 48.1719 158.13 48.5234 157.562 49.2266C156.995 49.9297 156.711 50.9297 156.711 52.2266C156.711 53.5234 156.995 54.5234 157.562 55.2266C158.13 55.9297 158.891 56.2812 159.844 56.2812ZM165.359 52.2266C165.359 54.2943 164.779 55.8776 163.617 56.9766C162.747 57.8724 161.49 58.3203 159.844 58.3203C158.198 58.3203 156.94 57.8724 156.07 56.9766C154.904 55.8776 154.32 54.2943 154.32 52.2266C154.32 50.1172 154.904 48.5339 156.07 47.4766C156.94 46.5807 158.198 46.1328 159.844 46.1328C161.49 46.1328 162.747 46.5807 163.617 47.4766C164.779 48.5339 165.359 50.1172 165.359 52.2266Z" fill="black"/>
<path d="M152.5 58H150.109V46.4844H152.5V58Z" fill="black"/>
<path d="M148.883 46.4844V48.5234H145.438V58H143.016V48.5234H139.555V46.4844H148.883Z" fill="black"/>
<path d="M133.289 53.6484H136.211L134.773 49.1172L133.289 53.6484ZM133.438 46.4844H136.156L140.234 58H137.625L136.883 55.6328H132.641L131.844 58H129.328L133.438 46.4844Z" fill="black"/>
<path d="M120.914 48.4844V56H123.133C124.268 56 125.06 55.4401 125.508 54.3203C125.753 53.7057 125.875 52.974 125.875 52.125C125.875 50.9531 125.69 50.0547 125.32 49.4297C124.956 48.7995 124.227 48.4844 123.133 48.4844H120.914ZM123.539 46.4844C124.253 46.4948 124.846 46.5781 125.32 46.7344C126.128 47 126.781 47.487 127.281 48.1953C127.682 48.7682 127.956 49.388 128.102 50.0547C128.247 50.7214 128.32 51.3568 128.32 51.9609C128.32 53.4922 128.013 54.7891 127.398 55.8516C126.565 57.2839 125.279 58 123.539 58H118.578V46.4844H123.539Z" fill="black"/>
<path d="M106.977 46.4844H109.5L114.086 54.5234V46.4844H116.328V58H113.922L109.219 49.8203V58H106.977V46.4844Z" fill="black"/>
<path d="M95.4531 46.4844H97.8984V53.5625C97.8984 54.3542 97.9922 54.9323 98.1797 55.2969C98.4714 55.9427 99.1068 56.2656 100.086 56.2656C101.06 56.2656 101.693 55.9427 101.984 55.2969C102.172 54.9323 102.266 54.3542 102.266 53.5625V46.4844H104.711V53.5625C104.711 54.7865 104.521 55.7396 104.141 56.4219C103.432 57.6719 102.081 58.2969 100.086 58.2969C98.0911 58.2969 96.737 57.6719 96.0234 56.4219C95.6432 55.7396 95.4531 54.7865 95.4531 53.5625V46.4844Z" fill="black"/>
<path d="M88.0938 56.2812C89.0469 56.2812 89.8021 55.9297 90.3594 55.2266C90.9219 54.5234 91.2031 53.5234 91.2031 52.2266C91.2031 50.9349 90.9219 49.9375 90.3594 49.2344C89.8021 48.526 89.0469 48.1719 88.0938 48.1719C87.1406 48.1719 86.3802 48.5234 85.8125 49.2266C85.2448 49.9297 84.9609 50.9297 84.9609 52.2266C84.9609 53.5234 85.2448 54.5234 85.8125 55.2266C86.3802 55.9297 87.1406 56.2812 88.0938 56.2812ZM93.6094 52.2266C93.6094 54.2943 93.0286 55.8776 91.8672 56.9766C90.9974 57.8724 89.7396 58.3203 88.0938 58.3203C86.4479 58.3203 85.1901 57.8724 84.3203 56.9766C83.1536 55.8776 82.5703 54.2943 82.5703 52.2266C82.5703 50.1172 83.1536 48.5339 84.3203 47.4766C85.1901 46.5807 86.4479 46.1328 88.0938 46.1328C89.7396 46.1328 90.9974 46.5807 91.8672 47.4766C93.0286 48.5339 93.6094 50.1172 93.6094 52.2266Z" fill="black"/>
<path d="M73.2188 46.5H81.3828V48.5234H75.6094V51.1719H80.6641V53.1719H75.6094V58H73.2188V46.5Z" fill="black"/>
<path d="M152.891 30.5234H146.797V32.9688H152.391V34.9688H146.797V37.9297H153.172V40H144.445V28.4844H152.891V30.5234Z" fill="black"/>
<path d="M134.594 28.4844H137V37.9297H142.703V40H134.594V28.4844Z" fill="black"/>
<path d="M126.18 35.6484H129.102L127.664 31.1172L126.18 35.6484ZM126.328 28.4844H129.047L133.125 40H130.516L129.773 37.6328H125.531L124.734 40H122.219L126.328 28.4844Z" fill="black"/>
<path d="M111.43 28.4844H113.953L118.539 36.5234V28.4844H120.781V40H118.375L113.672 31.8203V40H111.43V28.4844Z" fill="black"/>
<path d="M99.8672 28.4844H102.391L106.977 36.5234V28.4844H109.219V40H106.812L102.109 31.8203V40H99.8672V28.4844Z" fill="black"/>
<path d="M97.75 30.5234H91.6562V32.9688H97.25V34.9688H91.6562V37.9297H98.0312V40H89.3047V28.4844H97.75V30.5234Z" fill="black"/>
<path d="M86.9844 40H84.5938V28.4844H86.9844V40Z" fill="black"/>
<path d="M75.5547 30.4844V33.0234H78.3828C78.888 33.0234 79.2969 32.9297 79.6094 32.7422C79.9271 32.5495 80.0859 32.2109 80.0859 31.7266C80.0859 31.1901 79.8776 30.8359 79.4609 30.6641C79.1016 30.5443 78.6432 30.4844 78.0859 30.4844H75.5547ZM75.5547 34.9297V38H78.3828C78.888 38 79.2812 37.9323 79.5625 37.7969C80.0729 37.5469 80.3281 37.0677 80.3281 36.3594C80.3281 35.7604 80.0807 35.349 79.5859 35.125C79.3099 35 78.9219 34.9349 78.4219 34.9297H75.5547ZM78.8516 28.4844C80.263 28.5052 81.263 28.9141 81.8516 29.7109C82.2057 30.2005 82.3828 30.7865 82.3828 31.4688C82.3828 32.1719 82.2057 32.737 81.8516 33.1641C81.6536 33.4036 81.362 33.6224 80.9766 33.8203C81.5651 34.0339 82.0078 34.3724 82.3047 34.8359C82.6068 35.2995 82.7578 35.862 82.7578 36.5234C82.7578 37.2057 82.5859 37.8177 82.2422 38.3594C82.0234 38.7188 81.75 39.0208 81.4219 39.2656C81.0521 39.5469 80.6146 39.7396 80.1094 39.8438C79.6094 39.9479 79.0651 40 78.4766 40H73.2578V28.4844H78.8516Z" fill="black"/>
<path d="M122.562 22H120.172V10.4844H122.562V22Z" fill="black"/>
<path d="M108.781 22V10.4844H111.164V14.875H115.664V10.4844H118.055V22H115.664V16.8594H111.164V22H108.781Z" fill="black"/>
<path d="M96.7344 16.3359C96.7344 14.3255 97.2734 12.776 98.3516 11.6875C99.2891 10.7396 100.482 10.2656 101.93 10.2656C103.867 10.2656 105.284 10.901 106.18 12.1719C106.674 12.8854 106.94 13.6016 106.977 14.3203H104.57C104.414 13.7682 104.214 13.3516 103.969 13.0703C103.531 12.5703 102.883 12.3203 102.023 12.3203C101.148 12.3203 100.458 12.6745 99.9531 13.3828C99.4479 14.0859 99.1953 15.0833 99.1953 16.375C99.1953 17.6667 99.4609 18.6354 99.9922 19.2812C100.529 19.9219 101.208 20.2422 102.031 20.2422C102.875 20.2422 103.518 19.9661 103.961 19.4141C104.206 19.1172 104.409 18.6719 104.57 18.0781H106.953C106.745 19.3333 106.211 20.3542 105.352 21.1406C104.497 21.9271 103.401 22.3203 102.062 22.3203C100.406 22.3203 99.1042 21.7891 98.1562 20.7266C97.2083 19.6589 96.7344 18.1953 96.7344 16.3359Z" fill="black"/>
<path d="M89.875 20.2812C90.8281 20.2812 91.5833 19.9297 92.1406 19.2266C92.7031 18.5234 92.9844 17.5234 92.9844 16.2266C92.9844 14.9349 92.7031 13.9375 92.1406 13.2344C91.5833 12.526 90.8281 12.1719 89.875 12.1719C88.9219 12.1719 88.1615 12.5234 87.5938 13.2266C87.026 13.9297 86.7422 14.9297 86.7422 16.2266C86.7422 17.5234 87.026 18.5234 87.5938 19.2266C88.1615 19.9297 88.9219 20.2812 89.875 20.2812ZM95.3906 16.2266C95.3906 18.2943 94.8099 19.8776 93.6484 20.9766C92.7786 21.8724 91.5208 22.3203 89.875 22.3203C88.2292 22.3203 86.9714 21.8724 86.1016 20.9766C84.9349 19.8776 84.3516 18.2943 84.3516 16.2266C84.3516 14.1172 84.9349 12.5339 86.1016 11.4766C86.9714 10.5807 88.2292 10.1328 89.875 10.1328C91.5208 10.1328 92.7786 10.5807 93.6484 11.4766C94.8099 12.5339 95.3906 14.1172 95.3906 16.2266Z" fill="black"/>
<path d="M73.2578 10.4844H75.625V15.2266L80.0703 10.4844H83.1797L78.4609 15.2266L83.4219 22H80.3281L76.7734 16.9688L75.625 18.1484V22H73.2578V10.4844Z" fill="black"/>
<path d="M32.754 62.9307C32.8903 63.0675 33.1097 63.0675 33.246 62.9307L38.8078 57.3561C38.8752 57.2884 38.9144 57.1956 38.9144 57.0997V47.5879L48.2693 56.5601C48.3382 56.6262 48.4275 56.6608 48.5199 56.6608C48.5795 56.6608 48.6406 56.6451 48.6954 56.6152L53.7622 53.787C53.8624 53.7304 53.9314 53.6297 53.9455 53.5149C53.9455 53.5054 53.9486 53.4755 53.9486 53.4693V45.7758C53.9486 45.6767 53.9079 45.5824 53.8374 45.5131L41.5762 33.719L61.8888 14.2707C61.9608 14.2015 62 14.1071 62 14.008V6.49549C62 6.22179 61.7791 6 61.5065 6H53.6165C53.524 6 53.4347 6.03618 53.3674 6.10067L33.0047 25.5662L12.6499 6.10067C12.5825 6.03618 12.4932 6 12.4008 6H4.59379C4.26634 6 4 6.26741 4 6.59616V14.0678C4 14.1669 4.04073 14.2628 4.1128 14.3305L24.4488 33.7693L12.1861 45.5131C12.114 45.5824 12.0749 45.6767 12.0749 45.7758L12.0686 53.356C12.0686 53.5558 12.1751 53.7382 12.3491 53.8358L17.303 56.5995C17.4409 56.6765 17.6132 56.6545 17.7276 56.5444L27.095 47.5785V57.0997C27.095 57.1956 27.1326 57.2884 27.2016 57.3561L32.7556 62.9307H32.754ZM4.72382 13.9121V7.22063L28.4549 29.9344L24.9721 33.2691L4.72382 13.9121ZM12.7971 45.9316L29.2305 30.1971C29.3981 30.0288 29.4059 29.8479 29.2305 29.6717L5.26591 6.72671H12.2551L32.7556 26.3307C32.895 26.4644 33.1144 26.4644 33.2538 26.3307L53.7606 6.72671H60.7357L12.7909 52.6167L12.7971 45.9316ZM32.6428 61.7934L27.8173 56.9487V46.8863L32.6428 42.2681V61.7934ZM38.1905 56.9487L33.365 61.7934V42.2665L38.1905 46.8942V56.9487V56.9487ZM53.2232 45.93V52.6198L37.5216 37.5964L41.0482 34.2192L53.2217 45.9284L53.2232 45.93ZM61.2777 13.8523L36.7476 37.3352C36.6755 37.4045 36.6348 37.4988 36.6364 37.5979C36.6364 37.697 36.6771 37.793 36.7492 37.8606L52.9804 53.3906L48.5763 55.8492L33.2569 41.156C33.1864 41.0884 33.0971 41.0553 33.0078 41.0553C32.9185 41.0553 32.8277 41.0884 32.7587 41.156L17.4221 55.8334L13.0368 53.3875L61.2777 7.21119V13.8523V13.8523Z" fill="#231F20"/>
</svg>
