<svg width="197" height="59" viewBox="0 0 197 59" fill="none" xmlns="http://www.w3.org/2000/svg">
<path d="M75.2578 6.48438H77.625V11.2266L82.0703 6.48438H85.1797L80.4609 11.2266L85.4219 18H82.3281L78.7734 12.9688L77.625 14.1484V18H75.2578V6.48438ZM91.875 16.2812C92.8281 16.2812 93.5833 15.9297 94.1406 15.2266C94.7031 14.5234 94.9844 13.5234 94.9844 12.2266C94.9844 10.9349 94.7031 9.9375 94.1406 9.23438C93.5833 8.52604 92.8281 8.17188 91.875 8.17188C90.9219 8.17188 90.1615 8.52344 89.5938 9.22656C89.026 9.92969 88.7422 10.9297 88.7422 12.2266C88.7422 13.5234 89.026 14.5234 89.5938 15.2266C90.1615 15.9297 90.9219 16.2812 91.875 16.2812ZM97.3906 12.2266C97.3906 14.2943 96.8099 15.8776 95.6484 16.9766C94.7786 17.8724 93.5208 18.3203 91.875 18.3203C90.2292 18.3203 88.9714 17.8724 88.1016 16.9766C86.9349 15.8776 86.3516 14.2943 86.3516 12.2266C86.3516 10.1172 86.9349 8.53385 88.1016 7.47656C88.9714 6.58073 90.2292 6.13281 91.875 6.13281C93.5208 6.13281 94.7786 6.58073 95.6484 7.47656C96.8099 8.53385 97.3906 10.1172 97.3906 12.2266ZM98.7344 12.3359C98.7344 10.3255 99.2734 8.77604 100.352 7.6875C101.289 6.73958 102.482 6.26562 103.93 6.26562C105.867 6.26562 107.284 6.90104 108.18 8.17188C108.674 8.88542 108.94 9.60156 108.977 10.3203H106.57C106.414 9.76823 106.214 9.35156 105.969 9.07031C105.531 8.57031 104.883 8.32031 104.023 8.32031C103.148 8.32031 102.458 8.67448 101.953 9.38281C101.448 10.0859 101.195 11.0833 101.195 12.375C101.195 13.6667 101.461 14.6354 101.992 15.2812C102.529 15.9219 103.208 16.2422 104.031 16.2422C104.875 16.2422 105.518 15.9661 105.961 15.4141C106.206 15.1172 106.409 14.6719 106.57 14.0781H108.953C108.745 15.3333 108.211 16.3542 107.352 17.1406C106.497 17.9271 105.401 18.3203 104.062 18.3203C102.406 18.3203 101.104 17.7891 100.156 16.7266C99.2083 15.6589 98.7344 14.1953 98.7344 12.3359ZM110.781 18V6.48438H113.164V10.875H117.664V6.48438H120.055V18H117.664V12.8594H113.164V18H110.781ZM124.562 18H122.172V6.48438H124.562V18ZM125.961 12.4844H130.445V14.5938H125.961V12.4844ZM139.773 6.48438H143.234V18H140.992V10.2109C140.992 9.98698 140.995 9.67448 141 9.27344C141.005 8.86719 141.008 8.55469 141.008 8.33594L138.828 18H136.492L134.328 8.33594C134.328 8.55469 134.331 8.86719 134.336 9.27344C134.341 9.67448 134.344 9.98698 134.344 10.2109V18H132.102V6.48438H135.602L137.695 15.5391L139.773 6.48438ZM145.469 6.48438H147.914V13.5625C147.914 14.3542 148.008 14.9323 148.195 15.2969C148.487 15.9427 149.122 16.2656 150.102 16.2656C151.076 16.2656 151.708 15.9427 152 15.2969C152.188 14.9323 152.281 14.3542 152.281 13.5625V6.48438H154.727V13.5625C154.727 14.7865 154.536 15.7396 154.156 16.4219C153.448 17.6719 152.096 18.2969 150.102 18.2969C148.107 18.2969 146.753 17.6719 146.039 16.4219C145.659 15.7396 145.469 14.7865 145.469 13.5625V6.48438ZM156.219 15.9688L162.164 8.52344H156.367V6.48438H165.164V8.41406L159.141 15.9688H165.18V18H156.219V15.9688ZM169.016 18H166.625V6.48438H169.016V18ZM173.672 8.48438V11.5781H176.398C176.94 11.5781 177.346 11.5156 177.617 11.3906C178.096 11.1719 178.336 10.7396 178.336 10.0938C178.336 9.39583 178.104 8.92708 177.641 8.6875C177.38 8.55208 176.99 8.48438 176.469 8.48438H173.672ZM176.969 6.48438C177.776 6.5 178.396 6.59896 178.828 6.78125C179.266 6.96354 179.635 7.23177 179.938 7.58594C180.188 7.8776 180.385 8.20052 180.531 8.55469C180.677 8.90885 180.75 9.3125 180.75 9.76562C180.75 10.3125 180.612 10.8516 180.336 11.3828C180.06 11.9089 179.604 12.2812 178.969 12.5C179.5 12.7135 179.875 13.0182 180.094 13.4141C180.318 13.8047 180.43 14.4036 180.43 15.2109V15.9844C180.43 16.5104 180.451 16.8672 180.492 17.0547C180.555 17.3516 180.701 17.5703 180.93 17.7109V18H178.281C178.208 17.7448 178.156 17.5391 178.125 17.3828C178.062 17.0599 178.029 16.7292 178.023 16.3906L178.008 15.3203C177.997 14.5859 177.862 14.0964 177.602 13.8516C177.346 13.6068 176.865 13.4844 176.156 13.4844H173.672V18H171.32V6.48438H176.969ZM185.031 18H182.641V6.48438H185.031V18ZM189.023 14.4453C189.096 14.9714 189.24 15.3646 189.453 15.625C189.844 16.099 190.513 16.3359 191.461 16.3359C192.029 16.3359 192.49 16.2734 192.844 16.1484C193.516 15.9089 193.852 15.4635 193.852 14.8125C193.852 14.4323 193.685 14.138 193.352 13.9297C193.018 13.7266 192.495 13.5469 191.781 13.3906L190.562 13.1172C189.365 12.8464 188.536 12.5521 188.078 12.2344C187.302 11.7031 186.914 10.8724 186.914 9.74219C186.914 8.71094 187.289 7.85417 188.039 7.17188C188.789 6.48958 189.891 6.14844 191.344 6.14844C192.557 6.14844 193.591 6.47135 194.445 7.11719C195.305 7.75781 195.755 8.6901 195.797 9.91406H193.484C193.443 9.22135 193.141 8.72917 192.578 8.4375C192.203 8.24479 191.737 8.14844 191.18 8.14844C190.56 8.14844 190.065 8.27344 189.695 8.52344C189.326 8.77344 189.141 9.1224 189.141 9.57031C189.141 9.98177 189.323 10.2891 189.688 10.4922C189.922 10.6276 190.422 10.7865 191.188 10.9688L193.172 11.4453C194.042 11.6536 194.698 11.9323 195.141 12.2812C195.828 12.8229 196.172 13.6068 196.172 14.6328C196.172 15.6849 195.768 16.5599 194.961 17.2578C194.159 17.9505 193.023 18.2969 191.555 18.2969C190.055 18.2969 188.875 17.9557 188.016 17.2734C187.156 16.5859 186.727 15.6432 186.727 14.4453H189.023ZM77.5547 26.4844V29.0234H80.3828C80.888 29.0234 81.2969 28.9297 81.6094 28.7422C81.9271 28.5495 82.0859 28.2109 82.0859 27.7266C82.0859 27.1901 81.8776 26.8359 81.4609 26.6641C81.1016 26.5443 80.6432 26.4844 80.0859 26.4844H77.5547ZM77.5547 30.9297V34H80.3828C80.888 34 81.2812 33.9323 81.5625 33.7969C82.0729 33.5469 82.3281 33.0677 82.3281 32.3594C82.3281 31.7604 82.0807 31.349 81.5859 31.125C81.3099 31 80.9219 30.9349 80.4219 30.9297H77.5547ZM80.8516 24.4844C82.263 24.5052 83.263 24.9141 83.8516 25.7109C84.2057 26.2005 84.3828 26.7865 84.3828 27.4688C84.3828 28.1719 84.2057 28.737 83.8516 29.1641C83.6536 29.4036 83.362 29.6224 82.9766 29.8203C83.5651 30.0339 84.0078 30.3724 84.3047 30.8359C84.6068 31.2995 84.7578 31.862 84.7578 32.5234C84.7578 33.2057 84.5859 33.8177 84.2422 34.3594C84.0234 34.7188 83.75 35.0208 83.4219 35.2656C83.0521 35.5469 82.6146 35.7396 82.1094 35.8438C81.6094 35.9479 81.0651 36 80.4766 36H75.2578V24.4844H80.8516ZM88.9844 36H86.5938V24.4844H88.9844V36ZM99.75 26.5234H93.6562V28.9688H99.25V30.9688H93.6562V33.9297H100.031V36H91.3047V24.4844H99.75V26.5234ZM101.867 24.4844H104.391L108.977 32.5234V24.4844H111.219V36H108.812L104.109 27.8203V36H101.867V24.4844ZM113.43 24.4844H115.953L120.539 32.5234V24.4844H122.781V36H120.375L115.672 27.8203V36H113.43V24.4844ZM128.18 31.6484H131.102L129.664 27.1172L128.18 31.6484ZM128.328 24.4844H131.047L135.125 36H132.516L131.773 33.6328H127.531L126.734 36H124.219L128.328 24.4844ZM136.594 24.4844H139V33.9297H144.703V36H136.594V24.4844ZM154.891 26.5234H148.797V28.9688H154.391V30.9688H148.797V33.9297H155.172V36H146.445V24.4844H154.891V26.5234ZM74.5 54C74.5208 53.1875 74.6953 52.4453 75.0234 51.7734C75.3411 51.0182 76.0911 50.2188 77.2734 49.375C78.2995 48.6406 78.9635 48.1146 79.2656 47.7969C79.7292 47.3021 79.9609 46.7604 79.9609 46.1719C79.9609 45.6927 79.8281 45.2943 79.5625 44.9766C79.2969 44.6589 78.9167 44.5 78.4219 44.5C77.7448 44.5 77.2839 44.7526 77.0391 45.2578C76.8984 45.5495 76.8151 46.013 76.7891 46.6484H74.625C74.6615 45.6849 74.8359 44.9062 75.1484 44.3125C75.7422 43.1823 76.7969 42.6172 78.3125 42.6172C79.5104 42.6172 80.4635 42.9505 81.1719 43.6172C81.8802 44.2786 82.2344 45.1562 82.2344 46.25C82.2344 47.0885 81.9844 47.8333 81.4844 48.4844C81.1562 48.9167 80.6172 49.3984 79.8672 49.9297L78.9766 50.5625C78.4193 50.9583 78.0365 51.2448 77.8281 51.4219C77.625 51.599 77.4531 51.8047 77.3125 52.0391H82.2578V54H74.5ZM85.6797 48.4453C85.6797 49.7474 85.7865 50.7448 86 51.4375C86.2135 52.125 86.651 52.4688 87.3125 52.4688C87.974 52.4688 88.4062 52.125 88.6094 51.4375C88.8177 50.7448 88.9219 49.7474 88.9219 48.4453C88.9219 47.0807 88.8177 46.0703 88.6094 45.4141C88.4062 44.7578 87.974 44.4297 87.3125 44.4297C86.651 44.4297 86.2135 44.7578 86 45.4141C85.7865 46.0703 85.6797 47.0807 85.6797 48.4453ZM87.3125 42.5938C88.7552 42.5938 89.7656 43.1016 90.3438 44.1172C90.9271 45.1328 91.2188 46.5755 91.2188 48.4453C91.2188 50.3151 90.9271 51.7552 90.3438 52.7656C89.7656 53.776 88.7552 54.2812 87.3125 54.2812C85.8698 54.2812 84.8568 53.776 84.2734 52.7656C83.6953 51.7552 83.4062 50.3151 83.4062 48.4453C83.4062 46.5755 83.6953 45.1328 84.2734 44.1172C84.8568 43.1016 85.8698 42.5938 87.3125 42.5938ZM92.3125 54C92.3333 53.1875 92.5078 52.4453 92.8359 51.7734C93.1536 51.0182 93.9036 50.2188 95.0859 49.375C96.112 48.6406 96.776 48.1146 97.0781 47.7969C97.5417 47.3021 97.7734 46.7604 97.7734 46.1719C97.7734 45.6927 97.6406 45.2943 97.375 44.9766C97.1094 44.6589 96.7292 44.5 96.2344 44.5C95.5573 44.5 95.0964 44.7526 94.8516 45.2578C94.7109 45.5495 94.6276 46.013 94.6016 46.6484H92.4375C92.474 45.6849 92.6484 44.9062 92.9609 44.3125C93.5547 43.1823 94.6094 42.6172 96.125 42.6172C97.3229 42.6172 98.276 42.9505 98.9844 43.6172C99.6927 44.2786 100.047 45.1562 100.047 46.25C100.047 47.0885 99.7969 47.8333 99.2969 48.4844C98.9688 48.9167 98.4297 49.3984 97.6797 49.9297L96.7891 50.5625C96.2318 50.9583 95.849 51.2448 95.6406 51.4219C95.4375 51.599 95.2656 51.8047 95.125 52.0391H100.07V54H92.3125ZM101.219 54C101.24 53.1875 101.414 52.4453 101.742 51.7734C102.06 51.0182 102.81 50.2188 103.992 49.375C105.018 48.6406 105.682 48.1146 105.984 47.7969C106.448 47.3021 106.68 46.7604 106.68 46.1719C106.68 45.6927 106.547 45.2943 106.281 44.9766C106.016 44.6589 105.635 44.5 105.141 44.5C104.464 44.5 104.003 44.7526 103.758 45.2578C103.617 45.5495 103.534 46.013 103.508 46.6484H101.344C101.38 45.6849 101.555 44.9062 101.867 44.3125C102.461 43.1823 103.516 42.6172 105.031 42.6172C106.229 42.6172 107.182 42.9505 107.891 43.6172C108.599 44.2786 108.953 45.1562 108.953 46.25C108.953 47.0885 108.703 47.8333 108.203 48.4844C107.875 48.9167 107.336 49.3984 106.586 49.9297L105.695 50.5625C105.138 50.9583 104.755 51.2448 104.547 51.4219C104.344 51.599 104.172 51.8047 104.031 52.0391H108.977V54H101.219Z" fill="black"/>
<rect x="37.2305" y="58.9883" width="10.9602" height="22.8337" transform="rotate(180 37.2305 58.9883)" fill="#212121"/>
<path d="M7.75 0.0479156L0 7.79792L30.9996 38.7978L61.9996 7.79785L54.2496 0.0478516L30.9997 23.2977L7.75 0.0479156Z" fill="#EE1F27"/>
<rect x="23.252" y="31.0469" width="10.9602" height="22.8337" transform="rotate(45 23.252 31.0469)" fill="#BDD630"/>
<rect x="54.8965" y="47.1934" width="10.9602" height="22.8337" transform="rotate(135 54.8965 47.1934)" fill="#7BCEC6"/>
</svg>
