<svg width="154" height="67" viewBox="0 0 154 67" fill="none" xmlns="http://www.w3.org/2000/svg">
<path d="M152.891 48.5234H146.797V50.9688H152.391V52.9688H146.797V55.9297H153.172V58H144.445V46.4844H152.891V48.5234Z" fill="black"/>
<path d="M134.594 46.4844H137V55.9297H142.703V58H134.594V46.4844Z" fill="black"/>
<path d="M126.18 53.6484H129.102L127.664 49.1172L126.18 53.6484ZM126.328 46.4844H129.047L133.125 58H130.516L129.773 55.6328H125.531L124.734 58H122.219L126.328 46.4844Z" fill="black"/>
<path d="M111.43 46.4844H113.953L118.539 54.5234V46.4844H120.781V58H118.375L113.672 49.8203V58H111.43V46.4844Z" fill="black"/>
<path d="M99.8672 46.4844H102.391L106.977 54.5234V46.4844H109.219V58H106.812L102.109 49.8203V58H99.8672V46.4844Z" fill="black"/>
<path d="M97.75 48.5234H91.6562V50.9688H97.25V52.9688H91.6562V55.9297H98.0312V58H89.3047V46.4844H97.75V48.5234Z" fill="black"/>
<path d="M86.9844 58H84.5938V46.4844H86.9844V58Z" fill="black"/>
<path d="M75.5547 48.4844V51.0234H78.3828C78.888 51.0234 79.2969 50.9297 79.6094 50.7422C79.9271 50.5495 80.0859 50.2109 80.0859 49.7266C80.0859 49.1901 79.8776 48.8359 79.4609 48.6641C79.1016 48.5443 78.6432 48.4844 78.0859 48.4844H75.5547ZM75.5547 52.9297V56H78.3828C78.888 56 79.2812 55.9323 79.5625 55.7969C80.0729 55.5469 80.3281 55.0677 80.3281 54.3594C80.3281 53.7604 80.0807 53.349 79.5859 53.125C79.3099 53 78.9219 52.9349 78.4219 52.9297H75.5547ZM78.8516 46.4844C80.263 46.5052 81.263 46.9141 81.8516 47.7109C82.2057 48.2005 82.3828 48.7865 82.3828 49.4688C82.3828 50.1719 82.2057 50.737 81.8516 51.1641C81.6536 51.4036 81.362 51.6224 80.9766 51.8203C81.5651 52.0339 82.0078 52.3724 82.3047 52.8359C82.6068 53.2995 82.7578 53.862 82.7578 54.5234C82.7578 55.2057 82.5859 55.8177 82.2422 56.3594C82.0234 56.7188 81.75 57.0208 81.4219 57.2656C81.0521 57.5469 80.6146 57.7396 80.1094 57.8438C79.6094 57.9479 79.0651 58 78.4766 58H73.2578V46.4844H78.8516Z" fill="black"/>
<path d="M130.102 36.4453C130.174 36.9714 130.318 37.3646 130.531 37.625C130.922 38.099 131.591 38.3359 132.539 38.3359C133.107 38.3359 133.568 38.2734 133.922 38.1484C134.594 37.9089 134.93 37.4635 134.93 36.8125C134.93 36.4323 134.763 36.138 134.43 35.9297C134.096 35.7266 133.573 35.5469 132.859 35.3906L131.641 35.1172C130.443 34.8464 129.615 34.5521 129.156 34.2344C128.38 33.7031 127.992 32.8724 127.992 31.7422C127.992 30.7109 128.367 29.8542 129.117 29.1719C129.867 28.4896 130.969 28.1484 132.422 28.1484C133.635 28.1484 134.669 28.4714 135.523 29.1172C136.383 29.7578 136.833 30.6901 136.875 31.9141H134.562C134.521 31.2214 134.219 30.7292 133.656 30.4375C133.281 30.2448 132.815 30.1484 132.258 30.1484C131.638 30.1484 131.143 30.2734 130.773 30.5234C130.404 30.7734 130.219 31.1224 130.219 31.5703C130.219 31.9818 130.401 32.2891 130.766 32.4922C131 32.6276 131.5 32.7865 132.266 32.9688L134.25 33.4453C135.12 33.6536 135.776 33.9323 136.219 34.2812C136.906 34.8229 137.25 35.6068 137.25 36.6328C137.25 37.6849 136.846 38.5599 136.039 39.2578C135.237 39.9505 134.102 40.2969 132.633 40.2969C131.133 40.2969 129.953 39.9557 129.094 39.2734C128.234 38.5859 127.805 37.6432 127.805 36.4453H130.102Z" fill="black"/>
<path d="M126.109 40H123.719V28.4844H126.109V40Z" fill="black"/>
<path d="M114.75 30.4844V33.5781H117.477C118.018 33.5781 118.424 33.5156 118.695 33.3906C119.174 33.1719 119.414 32.7396 119.414 32.0938C119.414 31.3958 119.182 30.9271 118.719 30.6875C118.458 30.5521 118.068 30.4844 117.547 30.4844H114.75ZM118.047 28.4844C118.854 28.5 119.474 28.599 119.906 28.7812C120.344 28.9635 120.714 29.2318 121.016 29.5859C121.266 29.8776 121.464 30.2005 121.609 30.5547C121.755 30.9089 121.828 31.3125 121.828 31.7656C121.828 32.3125 121.69 32.8516 121.414 33.3828C121.138 33.9089 120.682 34.2812 120.047 34.5C120.578 34.7135 120.953 35.0182 121.172 35.4141C121.396 35.8047 121.508 36.4036 121.508 37.2109V37.9844C121.508 38.5104 121.529 38.8672 121.57 39.0547C121.633 39.3516 121.779 39.5703 122.008 39.7109V40H119.359C119.286 39.7448 119.234 39.5391 119.203 39.3828C119.141 39.0599 119.107 38.7292 119.102 38.3906L119.086 37.3203C119.076 36.5859 118.94 36.0964 118.68 35.8516C118.424 35.6068 117.943 35.4844 117.234 35.4844H114.75V40H112.398V28.4844H118.047Z" fill="black"/>
<path d="M110.094 40H107.703V28.4844H110.094V40Z" fill="black"/>
<path d="M97.2969 37.9688L103.242 30.5234H97.4453V28.4844H106.242V30.4141L100.219 37.9688H106.258V40H97.2969V37.9688Z" fill="black"/>
<path d="M86.5469 28.4844H88.9922V35.5625C88.9922 36.3542 89.0859 36.9323 89.2734 37.2969C89.5651 37.9427 90.2005 38.2656 91.1797 38.2656C92.1536 38.2656 92.7865 37.9427 93.0781 37.2969C93.2656 36.9323 93.3594 36.3542 93.3594 35.5625V28.4844H95.8047V35.5625C95.8047 36.7865 95.6146 37.7396 95.2344 38.4219C94.526 39.6719 93.1745 40.2969 91.1797 40.2969C89.1849 40.2969 87.8307 39.6719 87.1172 38.4219C86.737 37.7396 86.5469 36.7865 86.5469 35.5625V28.4844Z" fill="black"/>
<path d="M80.8516 28.4844H84.3125V40H82.0703V32.2109C82.0703 31.987 82.0729 31.6745 82.0781 31.2734C82.0833 30.8672 82.0859 30.5547 82.0859 30.3359L79.9062 40H77.5703L75.4062 30.3359C75.4062 30.5547 75.4089 30.8672 75.4141 31.2734C75.4193 31.6745 75.4219 31.987 75.4219 32.2109V40H73.1797V28.4844H76.6797L78.7734 37.5391L80.8516 28.4844Z" fill="black"/>
<path d="M123.961 16.4844H128.445V18.5938H123.961V16.4844Z" fill="black"/>
<path d="M122.562 22H120.172V10.4844H122.562V22Z" fill="black"/>
<path d="M108.781 22V10.4844H111.164V14.875H115.664V10.4844H118.055V22H115.664V16.8594H111.164V22H108.781Z" fill="black"/>
<path d="M96.7344 16.3359C96.7344 14.3255 97.2734 12.776 98.3516 11.6875C99.2891 10.7396 100.482 10.2656 101.93 10.2656C103.867 10.2656 105.284 10.901 106.18 12.1719C106.674 12.8854 106.94 13.6016 106.977 14.3203H104.57C104.414 13.7682 104.214 13.3516 103.969 13.0703C103.531 12.5703 102.883 12.3203 102.023 12.3203C101.148 12.3203 100.458 12.6745 99.9531 13.3828C99.4479 14.0859 99.1953 15.0833 99.1953 16.375C99.1953 17.6667 99.4609 18.6354 99.9922 19.2812C100.529 19.9219 101.208 20.2422 102.031 20.2422C102.875 20.2422 103.518 19.9661 103.961 19.4141C104.206 19.1172 104.409 18.6719 104.57 18.0781H106.953C106.745 19.3333 106.211 20.3542 105.352 21.1406C104.497 21.9271 103.401 22.3203 102.062 22.3203C100.406 22.3203 99.1042 21.7891 98.1562 20.7266C97.2083 19.6589 96.7344 18.1953 96.7344 16.3359Z" fill="black"/>
<path d="M89.875 20.2812C90.8281 20.2812 91.5833 19.9297 92.1406 19.2266C92.7031 18.5234 92.9844 17.5234 92.9844 16.2266C92.9844 14.9349 92.7031 13.9375 92.1406 13.2344C91.5833 12.526 90.8281 12.1719 89.875 12.1719C88.9219 12.1719 88.1615 12.5234 87.5938 13.2266C87.026 13.9297 86.7422 14.9297 86.7422 16.2266C86.7422 17.5234 87.026 18.5234 87.5938 19.2266C88.1615 19.9297 88.9219 20.2812 89.875 20.2812ZM95.3906 16.2266C95.3906 18.2943 94.8099 19.8776 93.6484 20.9766C92.7786 21.8724 91.5208 22.3203 89.875 22.3203C88.2292 22.3203 86.9714 21.8724 86.1016 20.9766C84.9349 19.8776 84.3516 18.2943 84.3516 16.2266C84.3516 14.1172 84.9349 12.5339 86.1016 11.4766C86.9714 10.5807 88.2292 10.1328 89.875 10.1328C91.5208 10.1328 92.7786 10.5807 93.6484 11.4766C94.8099 12.5339 95.3906 14.1172 95.3906 16.2266Z" fill="black"/>
<path d="M73.2578 10.4844H75.625V15.2266L80.0703 10.4844H83.1797L78.4609 15.2266L83.4219 22H80.3281L76.7734 16.9688L75.625 18.1484V22H73.2578V10.4844Z" fill="black"/>
<rect x="39.4141" y="61.1914" width="10.4268" height="21.7224" transform="rotate(180 39.4141 61.1914)" fill="#212121"/>
<path fill-rule="evenodd" clip-rule="evenodd" d="M11.3728 5.11838L4 12.4912L26.1185 34.6097L26.1185 34.6097L33.4913 41.9825L33.4913 41.9825L40.8642 34.6097L62.9827 12.4912L55.6098 5.11838L33.4913 27.2369L11.3728 5.11838Z" fill="#EE1F27"/>
<rect x="26.1172" y="34.6094" width="10.4268" height="21.7224" transform="rotate(45 26.1172 34.6094)" fill="#BDD630"/>
<rect x="56.2266" y="49.9688" width="10.4268" height="21.7224" transform="rotate(135 56.2266 49.9688)" fill="#7BCEC6"/>
</svg>
