<svg width="46" height="46" viewBox="0 0 46 46" fill="none" xmlns="http://www.w3.org/2000/svg">
<path d="M22.8049 45.9172C22.913 46.0276 23.087 46.0276 23.1951 45.9172L27.6062 41.421C27.6596 41.3665 27.6907 41.2916 27.6907 41.2142V33.5425L35.1101 40.7791C35.1648 40.8324 35.2356 40.8603 35.3089 40.8603C35.3561 40.8603 35.4046 40.8476 35.4481 40.8235L39.4666 38.5424C39.5461 38.4967 39.6008 38.4155 39.6119 38.3229C39.6119 38.3153 39.6144 38.2912 39.6144 38.2861V32.081C39.6144 32.0011 39.5821 31.925 39.5262 31.8692L29.8018 22.3566L45.9118 6.6707C45.9689 6.61488 46 6.53876 46 6.45883V0.399633C46 0.178883 45.8248 0 45.6086 0H39.351C39.2777 0 39.2069 0.0291796 39.1534 0.0811953L23.0037 15.7811L6.86024 0.0811953C6.80681 0.0291796 6.73598 0 6.66267 0H0.470935C0.211237 0 0 0.215675 0 0.480829V6.50704C0 6.58697 0.0323069 6.66436 0.0894652 6.71891L16.218 22.3972L6.49244 31.8692C6.43528 31.925 6.40421 32.0011 6.40421 32.081L6.39924 38.1948C6.39924 38.3559 6.48374 38.5031 6.62166 38.5817L10.5507 40.8108C10.66 40.873 10.7967 40.8552 10.8874 40.7664L18.3167 33.5349V41.2142C18.3167 41.2916 18.3466 41.3665 18.4012 41.421L22.8062 45.9172H22.8049ZM0.574068 6.38144V0.984493L19.3953 19.3042L16.6331 21.9938L0.574068 6.38144ZM6.97704 32.2066L20.0104 19.5161C20.1433 19.3803 20.1495 19.2344 20.0104 19.0923L1.004 0.586129H6.54711L22.8062 16.3976C22.9167 16.5055 23.0907 16.5055 23.2013 16.3976L39.4653 0.586129H44.9972L6.97207 37.5985L6.97704 32.2066ZM22.7167 45L18.8896 41.0924V32.9767L22.7167 29.2519V45ZM27.1166 41.0924L23.2895 45V29.2506L27.1166 32.9831V41.0924V41.0924ZM39.0391 32.2054V37.601L26.5861 25.4839L29.3831 22.7601L39.0379 32.2041L39.0391 32.2054ZM45.4272 6.33323L25.9722 25.2733C25.9151 25.3291 25.8828 25.4053 25.884 25.4852C25.884 25.5651 25.9163 25.6425 25.9735 25.6971L38.8465 38.2227L35.3536 40.2056L23.2038 28.3549C23.1479 28.3004 23.077 28.2737 23.0062 28.2737C22.9354 28.2737 22.8633 28.3004 22.8086 28.3549L10.6451 40.193L7.16715 38.2202L45.4272 0.976881V6.33323V6.33323Z" fill="#231F20"/>
</svg>
